:SAMPLES-PER-SECOND 30
:FULLY-SPECIFIED
:DEGREES
728
root  3.9373 37.7073 -5.80387 179.774 -78.6731 -177.432
RightUpLeg  -22.3008 -0.707961 -0.41064
RightLeg  35.3283 2.71156 1.80072
RightFoot  -13.6126 -0.161145 -3.48952
RightToes  -1.16417e-010 0 -3.6325e-017
Spine  20.0017 -1.12328 2.74024
Spine1  4.07217 -1.24454 1.50412
HEad  -28.8022 -5.30997 0.0954638
LeftShoulder1  0.236853 2.8159 -28.3084
LeftArm  11.732 -27.4936 -52.2684
LeftForeArm  27.3698 -42.8709 -8.55112
LeftHand  -0.0289309 5.7134 1.06268
RightShoulder  -0.412784 -4.69991 27.5164
RightArm  16.8687 6.99211 48.6655
RightForeArm  15.811 37.4961 7.63554
RightHand  -0.323167 7.29792 -3.32193
LeftUpLeg  -25.4264 4.07111 8.74611
LeftLeg  31.7861 0.922669 0.964978
LeftFoot  -6.21243 0.126012 -1.97878
LeftToes  3.13772e-010 -3.14513e-011 3.96022e-013
729
root  3.90527 37.6795 -5.871 -179.741 -79.0601 -177.785
RightUpLeg  -22.4527 -0.758183 -0.4063
RightLeg  35.5999 2.4169 1.593
RightFoot  -13.9938 -0.173824 -3.41856
RightToes  -1.16417e-010 0 -3.6325e-017
Spine  19.7876 -1.06218 2.69354
Spine1  4.2015 -1.28626 1.88602
HEad  -29.0278 -3.6305 -0.524876
LeftShoulder1  0.181111 2.98463 -28.7211
LeftArm  12.3152 -27.9873 -52.4755
LeftForeArm  27.2549 -42.098 -8.30506
LeftHand  -0.027773 5.52076 0.945457
RightShoulder  -0.356552 -4.54619 27.114
RightArm  17.0125 6.24784 48.4579
RightForeArm  15.6755 37.6635 7.69279
RightHand  -0.371259 6.47085 -3.96219
LeftUpLeg  -25.6552 3.93546 8.72627
LeftLeg  31.8936 0.739749 0.84473
LeftFoot  -6.30546 0.128208 -2.07712
LeftToes  3.13772e-010 -3.14513e-011 3.96022e-013
730
root  3.8585 37.6518 -5.93469 179.791 -79.6912 -177.291
RightUpLeg  -22.3847 -0.911191 -0.262867
RightLeg  35.818 2.02645 1.30382
RightFoot  -14.3862 -0.188234 -3.42761
RightToes  -1.16417e-010 0 -3.6325e-017
Spine  19.7526 -1.14626 2.95461
Spine1  4.19254 -1.36224 1.9919
HEad  -28.899 -2.45415 -0.800446
LeftShoulder1  0.181298 2.97785 -28.3459
LeftArm  12.6304 -27.7782 -52.9531
LeftForeArm  27.3203 -41.5593 -8.12876
LeftHand  -0.0277267 5.40384 1.35769
RightShoulder  -0.408304 -4.68232 27.6646
RightArm  17.8189 5.94094 47.587
RightForeArm  15.9022 37.5702 7.65136
RightHand  -0.310419 6.35934 -3.40685
LeftUpLeg  -25.8412 3.55224 8.86183
LeftLeg  32.0984 0.509565 0.693173
LeftFoot  -6.485 0.132099 -2.19407
LeftToes  3.13772e-010 -3.14513e-011 3.96022e-013
731
root  3.76787 37.6367 -6.00699 178.888 -80.3116 -176.502
RightUpLeg  -21.9822 -0.993895 -0.0760829
RightLeg  35.8512 1.58855 0.965406
RightFoot  -14.9428 -0.202042 -3.21273
RightToes  -1.16417e-010 0 -3.6325e-017
Spine  19.6661 -1.15171 3.33638
Spine1  4.24798 -1.34439 2.15387
HEad  -28.9495 -1.72157 -1.18307
LeftShoulder1  0.253475 2.76362 -28.0878
LeftArm  12.9121 -27.2565 -53.202
LeftForeArm  27.4061 -40.8068 -7.88799
LeftHand  -0.0322324 4.99267 1.46701
RightShoulder  -0.401139 -4.6672 27.4839
RightArm  17.6969 5.18907 47.3577
RightForeArm  15.9762 37.396 7.59638
RightHand  -0.348671 5.93782 -3.89371
LeftUpLeg  -25.7899 3.17855 9.05559
LeftLeg  32.2787 0.297024 0.551203
LeftFoot  -6.67025 0.131302 -2.23692
LeftToes  3.13772e-010 -3.14513e-011 3.96022e-013
732
root  3.63657 37.6455 -6.08093 178.568 -80.607 -176.372
RightUpLeg  -21.3762 -0.881339 -0.018731
RightLeg  35.7485 1.33266 0.762773
RightFoot  -15.6432 -0.222911 -3.1164
RightToes  -1.16417e-010 0 -3.6325e-017
Spine  19.1835 -1.02909 3.69352
Spine1  4.82771 -1.13852 2.02934
HEad  -29.0981 -0.561166 -1.67795
LeftShoulder1  0.262271 2.73894 -28.142
LeftArm  13.639 -26.8422 -53.2048
LeftForeArm  27.318 -39.7979 -7.5862
LeftHand  -0.0365438 5.11355 1.44414
RightShoulder  -0.444693 -4.7885 27.6929
RightArm  17.8405 4.92878 47.0126
RightForeArm  15.5059 36.9875 7.5074
RightHand  -0.309078 6.12615 -3.43032
LeftUpLeg  -25.4086 2.84763 9.17528
LeftLeg  32.3043 0.268924 0.53183
LeftFoot  -6.89552 0.135465 -2.42611
LeftToes  3.13772e-010 -3.14513e-011 3.96022e-013
733
root  3.45962 37.6267 -6.13421 176.82 -80.9667 -174.877
RightUpLeg  -20.6683 -0.60768 0.217575
RightLeg  35.7504 0.848984 0.388022
RightFoot  -16.3614 -0.240101 -2.9589
RightToes  -1.16417e-010 0 -3.6325e-017
Spine  18.9741 -1.05901 4.44567
Spine1  4.76546 -0.989188 1.77183
HEad  -28.815 0.850886 -2.66319
LeftShoulder1  0.240967 2.80401 -28.2858
LeftArm  14.234 -25.5385 -52.9214
LeftForeArm  27.5762 -38.7823 -7.27028
LeftHand  -0.0301802 5.01968 1.42691
RightShoulder  -0.477555 -4.87167 28.0285
RightArm  18.0752 4.54289 46.6124
RightForeArm  14.459 36.8806 7.54165
RightHand  -0.410378 6.65873 -4.29225
LeftUpLeg  -25.1722 2.06888 9.50571
LeftLeg  32.822 0.523755 0.714084
LeftFoot  -7.23352 0.139332 -2.67293
LeftToes  3.13772e-010 -3.14513e-011 3.96022e-013
734
root  3.22212 37.6091 -6.19255 174.648 -81.4462 -173.02
RightUpLeg  -19.7391 -0.639044 0.477011
RightLeg  35.6971 0.550118 0.15482
RightFoot  -17.1846 -0.243008 -2.48678
RightToes  -1.16417e-010 0 -3.6325e-017
Spine  18.5265 -0.994132 5.25982
Spine1  4.7446 -0.817814 1.83005
HEad  -27.9125 1.24406 -3.04959
LeftShoulder1  0.202575 2.92273 -28.7464
LeftArm  15.2123 -23.8451 -52.3928
LeftForeArm  26.8931 -37.4189 -6.92552
LeftHand  -0.025083 5.72153 1.46055
RightShoulder  -0.520539 -4.98482 28.3202
RightArm  18.0747 4.38894 46.3911
RightForeArm  15.3437 36.7902 7.46122
RightHand  -0.303942 6.24213 -3.36877
LeftUpLeg  -25.0849 1.09243 9.79303
LeftLeg  33.7719 1.05707 1.11344
LeftFoot  -7.17987 0.141035 -2.70235
LeftToes  3.13772e-010 -3.14513e-011 3.96022e-013
735
root  2.93001 37.6501 -6.25279 173.656 -81.7739 -172.642
RightUpLeg  -18.2594 -0.707392 0.485057
RightLeg  35.2647 0.418844 0.0493153
RightFoot  -17.7236 -0.232361 -2.01463
RightToes  -1.16417e-010 0 -3.6325e-017
Spine  18.0209 -0.744174 5.84561
Spine1  4.96096 -0.439081 1.75895
HEad  -26.8981 1.41082 -3.68956
LeftShoulder1  0.13404 3.12851 -29.5778
LeftArm  16.964 -22.1203 -51.7664
LeftForeArm  25.4423 -35.1404 -6.39539
LeftHand  -0.0201714 6.16463 1.7293
RightShoulder  -0.528404 -5.01255 28.2048
RightArm  17.6607 4.18486 46.6067
RightForeArm  16.0216 37.0781 7.50153
RightHand  -0.296417 5.74394 -3.41005
LeftUpLeg  -25.0319 0.841385 9.68016
LeftLeg  35.436 1.53978 1.53264
LeftFoot  -6.21072 0.169412 -2.95203
LeftToes  3.13772e-010 -3.14513e-011 3.96022e-013
736
root  2.6019 37.7419 -6.28438 172.098 -82.9278 -171.698
RightUpLeg  -16.4425 -1.70623 0.354011
RightLeg  34.442 0.270843 -0.0668576
RightFoot  -18.048 -0.23961 -2.00469
RightToes  -1.16417e-010 0 -3.6325e-017
Spine  17.5073 -0.971002 6.99771
Spine1  4.83717 -0.361805 1.0789
HEad  -25.9103 1.27877 -3.88778
LeftShoulder1  0.0535983 3.35597 -30.0667
LeftArm  18.6109 -19.9582 -51.1902
LeftForeArm  23.5996 -32.1056 -5.72831
LeftHand  -0.0195899 6.06722 1.83829
RightShoulder  -0.529422 -5.01022 28.3152
RightArm  17.4301 4.28393 47.0311
RightForeArm  14.9097 37.0306 7.55699
RightHand  -0.316881 5.951 -3.56728
LeftUpLeg  -25.8264 -0.126525 9.48426
LeftLeg  38.0556 1.71888 1.81083
LeftFoot  -3.85186 0.281714 -3.86097
LeftToes  3.13772e-010 -3.14513e-011 3.96022e-013
737
root  2.22044 37.859 -6.31194 171.434 -84.0284 -171.48
RightUpLeg  -14.6508 -2.48438 0.0892982
RightLeg  33.4529 -0.0274591 -0.284866
RightFoot  -18.3291 -0.252223 -2.10194
RightToes  -1.16417e-010 0 -3.6325e-017
Spine  16.7466 -0.790072 7.92864
Spine1  4.57988 0.00232606 0.765479
HEad  -24.7637 0.735753 -4.61396
LeftShoulder1  0.00773036 3.48267 -30.8442
LeftArm  20.4145 -17.3145 -50.752
LeftForeArm  21.5643 -28.6461 -4.99253
LeftHand  -0.0137862 6.64785 1.95041
RightShoulder  -0.60308 -5.20888 28.624
RightArm  16.8548 4.40476 47.0935
RightForeArm  15.0075 37.6469 7.72985
RightHand  -0.332636 6.16385 -3.67132
LeftUpLeg  -27.1921 -0.443441 9.03202
LeftLeg  41.1541 1.95515 2.20756
LeftFoot  -0.179849 0.46986 -4.88287
LeftToes  3.13772e-010 -3.14513e-011 3.96022e-013
738
root  1.76758 38.0223 -6.35471 171.792 -85.1289 -172.413
RightUpLeg  -12.2916 -3.35839 -0.320057
RightLeg  31.8131 -0.114899 -0.337463
RightFoot  -18.51 -0.231979 -1.70523
RightToes  -1.16417e-010 0 -3.6325e-017
Spine  15.8622 -0.516922 8.48698
Spine1  4.66813 0.414593 0.411352
HEad  -23.5236 0.59148 -5.45447
LeftShoulder1  -0.0988772 3.76732 -31.4211
LeftArm  22.5577 -14.7246 -50.2243
LeftForeArm  19.267 -24.5928 -4.37887
LeftHand  -0.0282222 6.77386 0.618222
RightShoulder  -0.626275 -5.28129 28.5033
RightArm  16.2962 4.7063 47.6148
RightForeArm  15.4638 38.4022 7.92474
RightHand  -0.313994 6.25497 -3.45901
LeftUpLeg  -28.2237 0.614965 8.09165
LeftLeg  43.5691 1.90593 2.32491
LeftFoot  3.65705 0.448986 -3.56709
LeftToes  3.13772e-010 -3.14513e-011 3.96022e-013
739
root  1.24408 38.2161 -6.38187 175.109 -85.8076 -176.1
RightUpLeg  -9.86673 -3.76919 -0.887245
RightLeg  29.6982 -0.122851 -0.327503
RightFoot  -18.4727 -0.1883 -1.01612
RightToes  -1.16417e-010 0 -3.6325e-017
Spine  14.9949 -0.146455 9.10937
Spine1  4.37209 1.05 -0.583968
HEad  -22.1321 0.232377 -6.04632
LeftShoulder1  -0.184688 3.98756 -32.0347
LeftArm  19.9286 -11.7046 -49.1063
LeftForeArm  20.865 -19.8307 -5.43001
LeftHand  -0.0288116 6.59626 0.574585
RightShoulder  -0.661485 -5.37938 28.5675
RightArm  16.2467 5.30941 48.081
RightForeArm  15.6895 39.1247 8.12872
RightHand  -0.348312 6.58987 -3.71026
LeftUpLeg  -28.4661 2.57357 6.82126
LeftLeg  43.562 1.06837 1.48936
LeftFoot  4.13092 0.394187 -3.11969
LeftToes  3.13772e-010 -3.14513e-011 3.96022e-013
